<svg viewBox="0 0 16 16" xmlns="http://www.w3.org/2000/svg" xmlns:xlink="http://www.w3.org/1999/xlink" width="16.000000" height="16.000000" fill="none">
	<rect id="System Icons" width="16.000000" height="16.000000" x="0.000000" y="0.000000" />
	<path id="Vector" d="M10.6667 2L10.6667 10.6667L0.666687 10.6667L0.666687 2L10.6667 2Z" stroke="rgb(240,112,48)" stroke-linecap="round" stroke-linejoin="round" stroke-width="1.25" />
	<path id="Vector" d="M13.3334 5.33337L15.3334 7.33337L15.3334 10.6667L10.6667 10.6667L10.6667 5.33337L13.3334 5.33337Z" fill-rule="nonzero" stroke="rgb(240,112,48)" stroke-linecap="round" stroke-linejoin="round" stroke-width="1.25" />
	<path id="Vector" d="M3.66667 14C2.74619 14 2 13.2538 2 12.3334C2 11.4129 2.74619 10.6667 3.66667 10.6667C4.58714 10.6667 5.33333 11.4129 5.33333 12.3334C5.33333 13.2538 4.58714 14 3.66667 14Z" stroke="rgb(240,112,48)" stroke-linecap="round" stroke-linejoin="round" stroke-width="1.25" />
	<path id="Vector" d="M12.3334 14C11.4129 14 10.6667 13.2538 10.6667 12.3334C10.6667 11.4129 11.4129 10.6667 12.3334 10.6667C13.2538 10.6667 14 11.4129 14 12.3334C14 13.2538 13.2538 14 12.3334 14Z" stroke="rgb(240,112,48)" stroke-linecap="round" stroke-linejoin="round" stroke-width="1.25" />
</svg>
