<svg viewBox="0 0 16 16" xmlns="http://www.w3.org/2000/svg" xmlns:xlink="http://www.w3.org/1999/xlink" width="16.000000" height="16.000000" fill="none">
	<rect id="System Icons" width="16.000000" height="16.000000" x="0.000000" y="0.000000" />
	<path id="Vector" d="M13.3333 8L13.3333 14.6667L2.66663 14.6667L2.66663 8" fill-rule="nonzero" stroke="rgb(240,112,48)" stroke-linecap="round" stroke-linejoin="round" stroke-width="1.25" />
	<path id="Vector" d="M14.6667 4.66663L14.6667 7.99996L1.33337 7.99996L1.33337 4.66663L14.6667 4.66663Z" stroke="rgb(240,112,48)" stroke-linecap="round" stroke-linejoin="round" stroke-width="1.25" />
	<path id="Vector" d="M10 0L0 0" stroke="rgb(240,112,48)" stroke-linecap="round" stroke-linejoin="round" stroke-width="1.25" transform="matrix(0,1,-1,0,8,4.66663)" />
	<path id="Vector" d="M5.00004 4.66671C4.55801 4.66671 4.13409 4.49111 3.82153 4.17855C3.50897 3.86599 3.33337 3.44207 3.33337 3.00004C3.33337 2.55801 3.50897 2.13409 3.82153 1.82153C4.13409 1.50897 4.55801 1.33337 5.00004 1.33337C7.33337 1.33337 8.00004 4.66671 8.00004 4.66671L5.00004 4.66671Z" fill-rule="nonzero" stroke="rgb(240,112,48)" stroke-linecap="round" stroke-linejoin="round" stroke-width="1.25" />
	<path id="Vector" d="M11 4.66671C11.442 4.66671 11.866 4.49111 12.1785 4.17855C12.4911 3.86599 12.6667 3.44207 12.6667 3.00004C12.6667 2.55801 12.4911 2.13409 12.1785 1.82153C11.866 1.50897 11.442 1.33337 11 1.33337C8.66667 1.33337 8 4.66671 8 4.66671L11 4.66671Z" fill-rule="nonzero" stroke="rgb(240,112,48)" stroke-linecap="round" stroke-linejoin="round" stroke-width="1.25" />
</svg>
