<svg viewBox="0 0 14 16" xmlns="http://www.w3.org/2000/svg" xmlns:xlink="http://www.w3.org/1999/xlink" width="14.000000" height="16.000000" fill="none" customFrame="#000000">
	<g id="Icon">
		<path id="Vector" d="M14 6.54545C14 11.6364 7 16 7 16C7 16 0 11.6364 0 6.54545C2.76642e-08 4.80949 0.737498 3.14463 2.05025 1.91712C3.36301 0.689608 5.14348 -8.07435e-16 7 0C8.85652 3.22974e-16 10.637 0.689608 11.9497 1.91712C13.2625 3.14463 14 4.80949 14 6.54545Z" fill="rgb(240,112,48)" fill-rule="evenodd" />
		<path id="Vector" d="M7 10C8.65685 10 10 8.65685 10 7C10 5.34315 8.65685 4 7 4C5.34315 4 4 5.34315 4 7C4 8.65685 5.34315 10 7 10Z" fill="rgb(253,241,234)" fill-rule="evenodd" />
	</g>
</svg>
