<svg viewBox="0 0 76 50" xmlns="http://www.w3.org/2000/svg" xmlns:xlink="http://www.w3.org/1999/xlink" width="76.000000" height="50.000000" fill="none" customFrame="#000000">
	<path id="Vector" d="M5.43626 49.9961C5.40396 49.9924 5.29446 49.9812 5.19294 49.971C4.26618 49.8786 3.27688 49.502 2.4992 48.9456C1.33323 48.1115 0.511585 46.897 0.168869 45.5009C-0.0132545 44.7591 -0.0494509 43.928 0.0670254 43.1634C0.379335 41.1135 1.7426 39.3576 3.63372 38.5695C4.10569 38.3728 4.57408 38.2484 5.12582 38.1733C5.43166 38.1316 6.17652 38.1314 6.48507 38.1729C7.13941 38.2609 7.69402 38.4248 8.26385 38.6988C8.89085 39.0002 9.32477 39.3106 9.85 39.8334C10.3092 40.2904 10.5927 40.6708 10.9214 41.2709L10.9913 41.3985L10.7435 41.5807C10.4021 41.8316 9.60132 42.3994 9.34051 42.5754L9.12504 42.7208L9.03642 42.5294C8.92684 42.2928 8.84883 42.1525 8.7225 41.965C8.21773 41.216 7.4128 40.681 6.53541 40.5113C6.07115 40.4216 5.49959 40.4316 5.04191 40.5374C4.56131 40.6486 4.0394 40.898 3.64071 41.2071C3.47999 41.3317 3.18421 41.6231 3.05408 41.7852C2.35188 42.6595 2.09324 43.7734 2.33406 44.886C2.41744 45.2712 2.63326 45.7744 2.85841 46.1087C3.4543 46.9934 4.36769 47.5601 5.40226 47.6872C5.58516 47.7097 6.02573 47.7097 6.20862 47.6872C7.12484 47.5746 7.97142 47.1016 8.54991 46.379C8.72027 46.1662 8.83899 45.982 8.9744 45.7204C9.03374 45.6057 9.08724 45.5119 9.09329 45.5119C9.09935 45.5119 9.52117 45.8077 10.0307 46.1693L10.957 46.8266L10.8632 47.003C10.6684 47.3691 10.3332 47.8293 10.0211 48.1594C9.48931 48.7216 8.97133 49.1037 8.29739 49.4309C7.71531 49.7134 7.09853 49.8937 6.4431 49.9727C6.29615 49.9904 5.54074 50.008 5.43626 49.9961ZM13.3569 44.0113L13.3569 38.2502L15.6055 38.2502L15.6055 42.3855L21.4788 42.3855L21.4788 38.2502L23.7275 38.2502L23.7275 49.7723L21.4788 49.7723L21.4788 44.7033L15.6055 44.7033L15.6055 49.7723L13.3569 49.7723L13.3569 44.0113ZM25.9993 48.751C26.2499 48.1893 27.4063 45.5968 28.569 42.9899L30.6831 38.2502L32.2605 38.2504L33.8379 38.2505L36.3935 43.9406C37.799 47.0701 38.9635 49.6625 38.9811 49.7015L39.0132 49.7723L36.3207 49.7723L35.8009 48.6302L35.2811 47.4881L32.2722 47.4922L29.2634 47.4963L28.7494 48.6343L28.2354 49.7723L25.5435 49.7723L25.9993 48.751ZM34.33 45.1636C34.3205 45.1229 32.2777 40.5855 32.2689 40.5857C32.2627 40.5858 30.3226 45.085 30.2916 45.1712C30.2881 45.1808 31.0639 45.1868 32.3107 45.1868C34.033 45.1868 34.3346 45.1834 34.33 45.1636ZM40.8272 44.0113L40.8272 38.2502L42.4088 38.2505L43.9904 38.2509L46.4656 41.7053L48.9408 45.1597L48.945 41.7049L48.9492 38.2502L51.2146 38.2502L51.2146 49.7726L50.3056 49.7683L49.3967 49.764L46.2572 45.4334C44.5305 43.0516 43.1121 41.1025 43.1052 41.1022C43.0983 41.1018 43.0926 43.0525 43.0926 45.4369L43.0926 49.7723L40.8272 49.7723L40.8272 44.0113ZM55.3091 44.0113L55.3091 38.2502L63.4143 38.2502L63.4143 40.568L57.5746 40.568L57.5746 42.8691L62.978 42.8691L62.978 45.1868L57.5746 45.1868L57.5746 47.4879L64.2534 47.4879L64.2534 49.7723L55.3091 49.7723L55.3091 44.0113ZM67.425 44.0113L67.425 38.2502L69.6904 38.2502L69.6904 47.4879L76 47.4879L76 49.7723L67.425 49.7723L67.425 44.0113ZM28.6029 35.3198C26.1825 35.2085 23.4872 34.4783 21.3143 33.345C19.6462 32.475 18.3241 31.5014 16.939 30.1231C15.8542 29.0435 15.0539 28.0491 14.3764 26.939L14.0799 26.453L14.5006 26.2313C15.3204 25.7992 19.0577 23.8976 19.087 23.8976C19.1034 23.8976 19.2578 24.1065 19.4301 24.3617C21.3778 27.2462 24.4247 29.1226 27.9903 29.6333C28.6136 29.7226 30.488 29.7083 31.1668 29.6092C31.922 29.4988 32.828 29.2942 33.4034 29.1039C33.4408 29.0915 33.3693 28.9761 33.2047 28.7832C31.9302 27.2904 30.7684 25.2415 30.1147 23.334C28.9324 19.8836 28.8482 16.1798 29.8731 12.6998C30.5095 10.5388 31.6048 8.4413 32.9918 6.72718C33.1985 6.47181 33.3676 6.24648 33.3676 6.22649C33.3676 6.15847 32.2848 5.87209 31.5752 5.7524C30.4788 5.56749 28.7623 5.54456 27.7714 5.70159C26.1041 5.96582 24.4118 6.58629 23.0894 7.41822C21.6158 8.34533 20.3869 9.53675 19.4063 10.9891L18.9733 11.6304L18.4221 11.3429C18.119 11.1848 16.9929 10.6049 15.9197 10.0543C14.8465 9.50374 13.9651 9.05032 13.961 9.04675C13.9439 9.03179 14.6158 7.96994 14.8924 7.57482C15.7321 6.37513 17.2231 4.7863 18.3247 3.91739C21.2053 1.6453 24.4076 0.365694 28.013 0.0461244C28.6818 -0.0131706 30.3401 -0.0136875 30.9852 0.0451739C33.2742 0.253974 35.2362 0.805453 37.2632 1.80965L38.232 2.28958L38.5565 2.10607C39.0806 1.80975 40.0117 1.38219 40.7189 1.11313C42.703 0.358257 44.7012 -0.00106481 46.9089 2.36996e-06C48.4507 0.000752728 49.7368 0.151275 51.1331 0.494355C54.2874 1.26942 56.9774 2.7559 59.2951 5.00462C60.5517 6.22374 61.5364 7.46848 62.3314 8.8427L62.4519 9.05099L60.4909 10.0562C59.4123 10.6092 58.284 11.1896 57.9836 11.3461L57.4374 11.6308L57.0245 11.0119C54.9872 7.95811 51.6548 5.97005 48.0072 5.63234C46.9273 5.53236 45.3239 5.62442 44.3492 5.84237C43.8475 5.95454 43.0332 6.18574 43.0334 6.21592C43.0335 6.23169 43.1668 6.40693 43.3295 6.60534C45.4198 9.15387 46.7249 12.2605 47.1466 15.6911C47.2473 16.51 47.2607 18.6005 47.1705 19.4111C46.7896 22.8343 45.487 25.9935 43.4077 28.5367C42.9363 29.1132 42.9565 29.0733 43.1076 29.1314C43.179 29.1588 43.5131 29.2506 43.85 29.3354C45.5625 29.7666 47.4058 29.8275 49.1366 29.5101C52.2846 28.9329 55.1198 27.0829 56.9433 24.4162C57.1128 24.1682 57.266 23.9487 57.2836 23.9283C57.3012 23.908 57.7215 24.0936 58.2177 24.3407C59.2006 24.8303 62.2793 26.4134 62.3123 26.4461C62.3673 26.5008 61.3861 27.9481 60.7844 28.6998C60.2147 29.4115 58.7214 30.8936 58.008 31.4554C55.4299 33.4856 52.5366 34.7269 49.3497 35.1701C45.6906 35.679 41.8154 34.9975 38.6624 33.2906L38.2168 33.0494L37.6641 33.34C34.9256 34.7797 31.7844 35.466 28.6029 35.3198ZM38.8258 25.318C40.3519 23.441 41.3041 21.164 41.5387 18.8307C41.6175 18.0476 41.5707 16.4524 41.448 15.7393C41.1105 13.7771 40.3883 12.0953 39.2233 10.5584C39.0039 10.269 38.6844 9.88213 38.5133 9.69871L38.2022 9.36517L37.9136 9.67615C37.5332 10.0861 36.8992 10.9224 36.5796 11.4358C34.9571 14.0429 34.4273 17.2458 35.1144 20.2942C35.5468 22.2125 36.5409 24.145 37.8807 25.6714L38.1892 26.0229L38.3242 25.8959C38.3985 25.8261 38.6242 25.566 38.8258 25.318Z" fill="rgb(56.8,55.4,55.4)" fill-rule="nonzero" />
</svg>
