<svg viewBox="0 0 49 50" xmlns="http://www.w3.org/2000/svg" xmlns:xlink="http://www.w3.org/1999/xlink" width="49.000000" height="50.000000" fill="none" customFrame="#000000">
	<path id="Vector" d="M9.78188 7L9.78188 9.25926C8.95733 9.98148 6.98705 10.4111 5.52015 10.4111C4.05512 10.4111 0 9.50741 0 5.26111C0 1.01481 3.85978 0.1 5.41684 0.1C6.97578 0.1 8.63615 0.381481 9.59781 1.01481L9.59781 3.00185C9.59781 3.25 9.25409 3.22778 9.25409 3.00185C9.23155 2.66296 8.31497 0.631481 6.02352 0.675926C3.54987 0.725926 1.87824 2.64259 1.87824 5.17037C1.87824 7.69815 3.50292 9.86852 5.9559 9.8C6.75227 9.77778 7.58246 9.52963 7.9844 9.2L7.99379 7C7.99379 6.36852 7.60499 6.14259 7.2162 6.14259C6.96264 6.14259 6.96264 5.78148 7.2162 5.78148L10.5595 5.78148C10.8112 5.78148 10.8112 6.16481 10.5595 6.14259C10.1726 6.14259 9.78188 6.36852 9.78188 7ZM32.3226 3.0037C32.3226 3.25185 32.071 3.22963 32.071 3.0037C32.0465 2.66481 31.1318 0.564815 28.8404 0.611111C26.3667 0.659259 24.6932 2.64444 24.6932 5.17222C24.6932 7.7 26.2972 9.93704 28.7483 9.87037C31.1994 9.80185 32.3677 7.40926 32.4597 7.09259C32.5518 6.77593 32.7114 6.82222 32.7114 7.07037L32.7114 8.92222C31.7047 9.64444 29.802 10.413 28.337 10.413C26.872 10.413 22.8169 9.50926 22.8169 5.26296C22.8169 1.01481 26.6654 0 28.2224 0C29.7814 0 31.361 0.383333 32.3245 1.01481L32.3226 3.0037ZM48.7253 0.248148C49.0916 0.248148 49.0916 0.587037 48.7253 0.587037C48.3346 0.587037 47.9458 0.812963 47.9458 1.44444L47.9458 8.96482C47.9458 9.5963 48.3346 9.82222 48.7253 9.82222C49.0916 9.82222 49.0916 10.2741 48.7253 10.2741L45.3576 10.2741C44.9914 10.2741 44.9914 9.82222 45.3576 9.82222C45.7483 9.82222 46.1371 9.5963 46.1371 8.96482L46.1371 1.44444C46.1371 0.811111 45.7483 0.587037 45.3576 0.587037C44.9914 0.587037 44.9914 0.248148 45.3576 0.248148L48.7253 0.248148ZM21.9454 0.248148C22.3116 0.248148 22.3116 0.587037 21.9454 0.587037C21.5566 0.587037 21.1678 0.812963 21.1678 1.44444L21.1227 6.37963C21.1227 8.74259 19.1787 10.4796 16.7802 10.4796C14.3817 10.4796 12.5091 8.74259 12.5091 6.37963L12.5091 1.44444C12.5091 0.811111 12.1184 0.587037 11.7296 0.587037C11.3634 0.587037 11.3634 0.248148 11.7296 0.248148L15.1198 0.248148C15.4861 0.248148 15.4861 0.587037 15.1198 0.587037C14.7292 0.587037 14.3404 0.812963 14.3404 1.44444L14.3366 6.95556C14.3366 8.62222 15.719 9.97407 17.4094 9.97407C19.0998 9.97407 20.4709 8.28333 20.4709 6.61852L20.3883 1.44444C20.3883 0.811111 19.9995 0.587037 19.6088 0.587037C19.2444 0.587037 19.2444 0.248148 19.6088 0.248148L21.9454 0.248148ZM25.0801 22.3741C27.1185 21.3815 29.3619 20.8669 31.6352 20.8704C33.8609 20.8708 36.0577 21.367 38.0615 22.3221C40.0653 23.2771 41.8244 24.6662 43.2073 26.3856C44.5901 28.1051 45.5611 30.1103 46.0476 32.2517C46.534 34.393 46.5235 36.6151 46.0167 38.7518C45.5098 40.8886 44.5199 42.8848 43.1207 44.5913C41.7215 46.2979 39.9494 47.6707 37.9365 48.6071C35.9237 49.5436 33.7223 50.0195 31.4967 49.9994C29.2711 49.9792 27.0789 49.4635 25.0839 48.4907C23.0892 49.462 20.8977 49.9765 18.6731 49.9957C16.4485 50.015 14.2482 49.5385 12.2365 48.6019C10.2248 47.6653 8.45366 46.2928 7.05534 44.5868C5.65701 42.8808 4.66762 40.8853 4.16102 38.7495C3.65442 36.6137 3.64371 34.3926 4.12968 32.2522C4.61565 30.1117 5.58575 28.1071 6.96755 26.388C8.34935 24.669 10.1072 23.2799 12.1097 22.3245C14.1123 21.3691 16.3079 20.872 18.5326 20.8704C20.8879 20.8704 23.1042 21.4111 25.0801 22.3741ZM28.059 24.287C30.3473 26.1725 31.9946 28.7041 32.779 31.5407L29.7175 31.5407C28.8578 29.1456 27.2298 27.0919 25.0801 25.6907C22.9346 27.0928 21.3096 29.1448 20.4503 31.537L17.3906 31.5389C18.1849 28.6988 19.8371 26.1643 22.1275 24.2722C20.9628 23.917 19.75 23.7384 18.5307 23.7426C16.8229 23.7442 15.1357 24.1096 13.5844 24.8138C12.0331 25.5179 10.6544 26.5442 9.5427 27.8224C8.43098 29.1006 7.61247 30.6005 7.14318 32.2194C6.67389 33.8384 6.5649 35.5382 6.82366 37.2026C7.08243 38.8669 7.70285 40.4565 8.64245 41.8626C9.58206 43.2686 10.8187 44.4579 12.2677 45.3491C13.7167 46.2402 15.3438 46.8122 17.0378 47.0259C18.7318 47.2395 20.4526 47.0898 22.0825 46.587C20.5909 45.3447 19.3653 43.8219 18.4772 42.1075C17.5891 40.3932 17.0563 38.5215 16.9098 36.6018L23.9382 36.6018L23.9382 39.5074L20.5198 39.5056C21.3972 41.8247 22.9969 43.8103 25.0895 45.1778C27.1822 43.8127 28.7795 41.8259 29.6499 39.5056L26.2315 39.5074L26.2315 36.6018L33.2599 36.6018C33.1048 38.5221 32.5631 40.3926 31.6666 42.1042C30.7701 43.8158 29.5367 45.334 28.0384 46.5704C29.8145 47.1277 31.699 47.2642 33.5387 46.9689C35.3784 46.6736 37.1216 45.9548 38.6267 44.8708C40.1318 43.7868 41.3565 42.3681 42.2014 40.73C43.0462 39.0918 43.4874 37.2804 43.4891 35.4426C43.4908 33.6049 43.053 31.7926 42.2112 30.153C41.3694 28.5133 40.1473 27.0924 38.6442 26.0057C37.1411 24.919 35.3992 24.197 33.5601 23.8984C31.7209 23.5998 29.8362 23.7329 28.059 24.287ZM43.5245 3.0037C43.5245 3.25185 43.2728 3.22963 43.2728 3.0037C43.2502 2.66481 42.3337 0.564815 40.0422 0.611111C37.5686 0.659259 35.8951 2.64444 35.8951 5.17222C35.8951 7.7 37.4991 9.93704 39.9502 9.87037C42.4013 9.8037 43.5695 7.40926 43.6616 7.09259C43.7536 6.77593 43.9151 6.82222 43.9151 7.07037L43.9151 8.92222C42.9065 9.64444 41.0057 10.413 39.5388 10.413C38.0738 10.413 34.0187 9.50926 34.0187 5.26296C34.0187 1.01481 37.8672 0 39.4261 0C40.9832 0 42.5647 0.383333 43.5263 1.01481L43.5245 3.0037Z" fill="rgb(56.8,55.4,55.4)" fill-rule="nonzero" />
</svg>
