<svg viewBox="0 0 86.2196 50.0005" xmlns="http://www.w3.org/2000/svg" xmlns:xlink="http://www.w3.org/1999/xlink" width="86.219604" height="50.000488" fill="none" customFrame="#000000">
	<g id="Group 1957">
		<path id="Vector" d="M7.79509 26.8374L9.46547 26.8374L9.46547 29.9555L3.56347 29.9555L3.56347 26.8374L5.23385 26.8374L5.23385 24.9444L0 24.9444L0 26.8374L1.67038 26.8374L1.67038 36.1916L0 36.1916L0 38.0846L5.23385 38.0846L5.23385 36.1916L3.56347 36.1916L3.56347 31.8486L9.46547 31.8486L9.46547 36.1916L7.79509 36.1916L7.79509 38.0846L13.0289 38.0846L13.0289 36.1916L11.3586 36.1916L11.3586 26.8374L13.0289 26.8374L13.0289 24.9444L7.79509 24.9444M71.0467 36.0802L65.9242 36.0802L65.9242 31.7372L70.3786 31.7372L70.3786 29.8441L65.9242 29.8441L65.9242 26.7261L71.1581 26.7261L71.1581 28.5078L72.9398 28.5078L72.9398 24.833L62.2494 24.833L62.2494 26.7261L64.0311 26.7261L64.0311 36.0802L62.2494 36.0802L62.2494 37.9733L72.9398 37.9733L72.9398 33.6303L71.0467 33.6303M26.2806 33.6303L24.3875 33.6303L24.3875 36.0802L19.265 36.0802L19.265 31.7372L23.7194 31.7372L23.7194 29.8441L19.265 29.8441L19.265 26.7261L24.4989 26.7261L24.4989 28.5078L26.2806 28.5078L26.2806 24.833L15.5902 24.833L15.5902 26.7261L17.3719 26.7261L17.3719 36.0802L15.5902 36.0802L15.5902 37.9733L26.2806 37.9733M66.3697 24.2762L70.1558 24.2762L69.1536 23.1626L65.2561 23.1626M83.2962 30.5123C81.9598 30.1782 81.069 30.1782 79.7327 29.7328C78.5077 29.2873 78.285 28.6192 78.285 28.0624C78.285 27.617 78.8418 26.2807 80.7349 26.2807C82.628 26.2807 83.8529 27.5056 83.9643 28.6192L85.746 28.6192L85.746 24.833L83.9643 24.833L83.9643 25.6125L83.9643 25.8352C83.9643 25.8352 83.8529 25.7239 83.7416 25.5011C83.1848 24.9444 82.0712 24.4989 80.5122 24.4989C78.6191 24.4989 76.2806 25.7239 76.2806 28.0624C76.2806 30.2896 77.9509 31.0691 79.2872 31.5145C80.6235 31.8486 81.4031 31.8486 82.5166 32.1826C83.6302 32.5167 84.4097 33.1849 84.4097 34.1871C84.4097 35.1893 83.8529 36.4143 81.4031 36.4143C78.9532 36.4143 77.9509 35.078 77.7282 33.1849L75.9465 33.1849L75.9465 37.7506L77.7282 37.7506L77.7282 36.8597L77.6169 36.637C77.6169 36.637 77.7282 36.7483 77.8396 36.9711C78.7305 37.6392 79.9554 38.0846 81.5144 38.0846C83.1848 38.0846 86.1915 37.1938 86.1915 34.0757C86.4142 32.0713 85.3006 31.0691 83.2962 30.5123ZM54.4543 36.0802L54.4543 37.9733L59.7995 37.9733L59.7995 36.0802L58.0178 36.0802L58.0178 26.7261L59.7995 26.7261L59.7995 24.833L55.0111 24.833L51.8931 32.4054L51.7817 32.7394L51.6703 32.4054L48.5523 24.833L43.7639 24.833L43.7639 26.7261L45.5456 26.7261L45.5456 36.0802L43.7639 36.0802L43.7639 37.9733L49.1091 37.9733L49.1091 36.0802L47.4387 36.0802L47.4387 27.5056L47.4387 26.9488L47.5501 27.3942L51.2249 36.0802L52.3385 36.0802L56.0133 27.3942L56.1247 26.9488L56.1247 27.5056L56.1247 36.1916M18.1514 19.4878L18.1514 19.9332L19.9332 19.9332C19.7105 19.8219 19.5991 19.7105 19.3764 19.4878L18.1514 19.4878ZM66.3697 19.4878L65.4788 19.4878C65.2561 19.4878 65.0334 19.7105 65.0334 19.9332L66.481 19.9332L66.3697 19.4878ZM18.1514 21.1582L66.3697 21.1582L66.3697 20.2673L35.3006 20.2673C34.5211 20.6014 33.5189 20.6014 32.7394 20.2673L23.3853 20.2673C22.4944 20.7127 21.4922 20.6014 20.6013 20.2673L18.1514 20.2673L18.1514 21.1582ZM31.7372 19.4878L24.4989 19.4878C24.4989 19.4878 24.1648 19.8219 24.0534 19.9332L32.294 19.9332C31.9599 19.7105 31.8485 19.5992 31.7372 19.4878Z" fill="rgb(56.8,55.4,55.4)" fill-rule="nonzero" />
		<path id="Vector" d="M18.931 16.147C18.8196 16.481 18.8196 16.7038 18.8196 17.0378C18.8196 18.7082 20.2673 20.1559 22.049 20.0445C23.7194 20.0445 25.0557 18.7082 25.0557 17.0378C25.0557 16.7038 24.9443 16.3697 24.833 16.0356C25.1671 15.9242 25.5011 15.9242 25.8352 15.8129C25.9466 15.8129 25.9466 15.7015 25.8352 15.7015C25.3898 15.5902 24.833 15.4788 24.3876 15.3675C23.8308 14.5879 22.8285 14.0312 21.8263 14.0312C21.3809 14.0312 21.0468 14.1425 20.7127 14.2539C20.6014 14.0312 20.6014 13.6971 20.7127 13.363C21.0468 12.8062 21.715 12.6949 22.2717 12.5835C22.4945 12.5835 22.9399 12.5835 22.9399 12.6949C23.0513 12.8062 23.274 12.8062 23.4967 12.6949C23.7194 12.8062 23.7194 12.8062 23.9421 12.9176C25.9466 13.5857 28.1737 13.9198 30.2896 13.5857C30.6236 13.9198 30.8463 14.4766 31.0691 14.922C31.1804 15.0334 31.1804 14.8107 32.294 14.8107C32.6281 14.8107 33.1849 14.8107 33.519 14.8107C32.6281 14.922 31.9599 15.3675 31.5145 16.0356C30.8463 16.2583 30.2896 16.481 30.0668 16.5924C30.0668 16.5924 30.0668 16.7038 30.2896 16.7038C30.6236 16.8151 30.9577 16.8151 31.2918 16.9265C31.2918 17.0378 31.2918 17.2605 31.2918 17.3719C31.2918 18.9309 32.5167 20.1559 34.0757 20.1559C35.6348 20.1559 36.8597 18.9309 36.8597 17.3719C36.8597 16.9265 36.7484 16.481 36.5256 16.0356C36.8597 15.9242 37.1938 15.8129 37.6392 15.5902C37.9733 15.7015 38.196 15.9242 38.3074 16.147C38.5301 16.3697 38.8642 16.2583 39.0869 16.2583C39.421 16.147 39.5323 15.8129 39.5323 15.4788C39.5323 15.3675 39.5323 15.1447 39.6437 15.0334C40.0891 14.0312 41.8708 13.9198 42.7617 13.6971C42.7617 13.6971 42.3163 14.2539 41.9822 14.3652C41.8708 15.8129 41.314 17.1492 41.314 18.5968C41.7595 18.5968 41.7595 19.1536 41.8708 19.3764C41.7595 19.5991 41.5368 19.3764 41.314 19.4877C40.6459 19.1536 41.4254 18.4855 40.98 18.0401C41.2027 16.8151 41.7595 15.7015 41.6481 14.4766C41.4254 14.4766 41.4254 14.6993 41.314 14.8107C41.2027 16.0356 40.8686 17.1492 40.5345 18.1514C40.6459 18.2628 40.8686 18.2628 40.8686 18.4855C40.4232 18.7082 40.8686 19.1536 40.7573 19.4877L36.5256 19.4877L36.0802 19.9331L42.6504 19.9331L42.7617 19.7104C41.7595 18.7082 42.2049 17.1492 42.6504 16.0356L43.7639 14.4766C44.6548 14.1425 45.323 12.9176 46.2138 12.5835C46.2138 13.0289 45.657 13.2516 45.323 13.5857C44.9889 14.3652 43.8753 14.4766 43.7639 15.3675C44.2094 15.8129 44.7662 16.147 45.323 16.5924C45.8798 16.9265 45.657 17.5946 46.1025 17.9287C46.2138 18.0401 46.1025 18.1514 45.9911 18.2628C45.5457 18.3741 45.5457 18.7082 45.8798 18.9309C46.1025 19.0423 46.2138 19.265 46.2138 19.3764L43.2071 19.3764C43.2071 19.4877 43.3185 19.5991 43.4299 19.8218L60.1336 19.8218C60.245 19.5991 60.0223 19.265 59.9109 19.0423C58.686 18.5969 58.686 17.4833 58.686 16.2583C58.686 16.2583 58.5746 16.147 58.686 15.8129C58.4633 15.7015 57.6838 13.6971 58.1292 12.1381L58.3519 11.5813C58.5746 11.2472 58.3519 11.0245 58.4633 10.6904L62.0267 10.0223C62.1381 10.0223 62.0267 9.79954 62.0267 9.79954L60.9132 10.0223C60.0223 9.68818 58.7973 8.90867 58.0178 7.79509C58.2405 6.01335 58.1292 4.67705 58.0178 3.67483C58.5746 3.22939 58.9087 2.89532 58.9087 2.89532C59.2428 3.11803 59.3541 3.00668 59.3541 2.89532C59.2428 2.78396 58.7973 2.56124 58.9087 2.33853C59.2428 2.44988 59.3541 2.33853 59.3541 2.11581L58.686 2.22717L58.686 2.11581C58.7973 2.00445 59.0201 2.11581 59.2428 2.11581C59.4655 2.00445 59.2428 1.78173 59.2428 1.67038C58.7973 1.11358 57.9065 1.11358 57.3497 0.779509C57.2383 0.445433 57.127 0.334075 56.9042 0.222717C56.7929 0 56.0134 0 55.7907 0C55.6793 0 55.3452 0.334075 55.3452 0.334075C54.8998 0.445434 54.5657 0.222717 54.1203 0C54.1203 0 54.2316 0.445434 54.6771 0.66815C54.343 0.779509 54.1203 1.11358 54.0089 1.55902C53.5635 1.67038 53.4521 2.22717 53.5635 2.44988C53.1181 2.6726 53.1181 3.00668 53.3408 3.45211C53.0067 3.67483 53.0067 4.12026 53.1181 4.34298C52.784 4.56569 53.1181 5.12249 53.1181 5.45656C54.0089 5.23384 55.2339 7.34965 56.9042 7.57237C57.2383 6.12471 56.7929 5.3452 56.4588 4.67705C56.7929 4.45433 57.0156 4.23162 57.3497 4.0089C57.5724 4.89977 57.6838 6.34743 57.461 7.79509C57.3497 7.79509 57.2383 7.68373 57.127 7.68373C57.127 7.68373 57.3497 8.0178 57.3497 8.12916C57.3497 8.12916 56.7929 8.46324 55.6793 8.0178C55.3452 8.68595 51.6704 10.3563 51.6704 10.3563C51.7818 11.3586 52.3385 12.0267 52.784 12.5835C53.5635 13.1403 54.4544 13.4744 55.4566 13.6971C55.6793 14.2539 56.3475 16.0356 56.4588 16.3697C56.5702 16.7038 56.6815 16.7038 56.6815 16.7038C56.7929 16.8151 57.127 17.3719 57.127 17.706L57.2383 18.7082C57.2383 18.9309 57.5724 18.7082 57.5724 18.9309L57.461 19.5991L46.3252 19.5991C46.4365 18.8196 46.1025 18.1514 46.3252 17.4833C45.8797 16.7038 44.6548 16.147 44.8775 15.1447C45.4343 14.3652 47.3274 13.5857 46.882 12.5835C48.5524 11.6926 49.4432 13.1403 51.0022 13.0289C51.559 13.0289 52.1158 12.9176 52.6726 12.8062C52.0045 12.2494 51.4477 11.4699 51.1136 10.8018C47.7728 12.1381 44.6548 13.2516 40.98 13.9198L40.7573 13.8084C40.5345 13.8084 36.5256 14.6993 35.5234 15.1447C35.3007 15.0334 34.9666 14.8107 34.6325 14.8107L34.7439 14.8107C35.078 14.8107 35.6348 14.5879 35.9688 14.4766C37.5279 13.9198 38.0847 11.6926 38.7528 10.3563C39.3096 12.4721 40.7573 12.6949 41.5368 12.4721L41.6481 13.1403C41.6481 13.1403 42.3163 13.1403 42.8731 12.9176C42.8731 12.8062 42.7617 12.4721 42.6504 12.0267C42.9844 11.9153 43.0958 11.6926 43.3185 11.6926C43.3185 12.2494 43.4299 12.6949 43.2071 12.9176L44.9889 12.4721C45.323 10.9131 46.3252 8.68595 47.9956 7.12694C45.7684 6.23607 44.098 7.23829 43.6526 7.68373C41.5368 8.35188 41.4254 11.2472 41.5368 12.3608C41.2027 12.4721 39.6437 12.9176 38.8642 10.245C39.1982 8.90867 39.9777 7.79509 40.98 6.90422C41.0913 6.79286 40.98 6.6815 40.7573 6.79286C38.9755 8.0178 38.3074 10.245 37.3051 12.1381C36.5256 13.2516 35.5234 13.9198 33.9644 13.8084C32.0713 13.8084 31.0691 11.804 30.1782 10.4677C28.8419 7.46101 25.2784 8.5746 22.6058 7.90645C22.4945 7.79509 22.1604 7.01558 21.715 7.01558C21.3809 7.01558 21.715 7.34965 21.4922 7.46101C21.1582 7.34965 20.9354 7.12694 20.49 7.12694C20.2673 7.12694 20.1559 7.46101 20.1559 7.68373C20.3787 8.68595 21.3809 9.02003 22.1604 9.3541C22.4945 9.79954 22.3831 11.2472 22.049 11.804C21.715 12.3608 20.49 12.1381 20.2673 13.4744C20.2673 13.6971 20.2673 14.0312 20.3787 14.1425C19.9332 14.3652 19.4878 14.8107 19.1537 15.2561C18.5969 15.3675 18.1515 15.4788 17.5947 15.7015C17.4833 15.7015 17.4833 15.8129 17.5947 15.8129C18.1515 16.0356 18.5969 16.0356 18.931 16.147ZM57.9065 8.68595C58.3519 9.13139 59.4655 9.9109 60.1336 10.1336L58.1292 10.4677C58.3519 9.68818 57.5724 9.3541 57.9065 8.68595ZM58.1292 1.89309C58.2405 1.89309 58.4633 1.89309 58.4633 2.00445C58.4633 2.00445 58.4633 2.11581 58.4633 2.22717C58.3519 2.22717 58.1292 2.22717 58.1292 2.11581C58.0178 2.00445 58.0178 1.89309 58.1292 1.89309ZM58.1292 2.33853C58.1292 2.44988 58.2405 2.6726 58.3519 2.78396C58.3519 2.89532 58.0178 3.22939 57.5724 3.56347C57.461 3.00668 57.3497 2.6726 57.3497 2.56124C57.3497 2.44988 57.9065 2.33853 58.1292 2.33853ZM56.2361 0.556792C56.3475 0.556792 56.4588 0.556792 56.4588 0.556792C56.4588 0.556792 56.4588 0.66815 56.4588 0.779509L56.2361 0.890867C56.2361 0.890867 56.0134 0.779509 56.0134 0.66815C56.1247 0.66815 56.1247 0.556792 56.2361 0.556792ZM56.4588 4.45434C56.2361 4.0089 56.0134 3.45211 56.1247 2.78396C56.3475 2.78396 56.6815 2.89532 57.127 2.78396C57.127 2.78396 57.2383 3.22939 57.3497 3.89754C57.0156 4.0089 56.6815 4.23162 56.4588 4.45434ZM53.4521 12.6949C52.784 12.3608 53.2294 12.5835 53.3408 12.4721C54.4544 13.0289 55.0112 12.9176 55.902 12.8062C56.0134 12.9176 56.2361 13.1403 56.2361 13.363C55.1225 13.5857 54.343 13.2516 53.4521 12.6949ZM57.461 18.2628C57.3497 17.706 57.3497 17.3719 57.127 17.0378C56.9042 16.481 56.3475 14.922 55.902 13.5857C56.1247 13.363 56.3475 13.4744 56.4588 14.1425C56.5702 14.6993 56.7929 15.1447 56.9042 15.5902C57.127 16.0356 57.2383 16.7038 57.3497 17.0378C57.3497 17.0378 57.461 17.0378 57.5724 17.2605C57.9065 18.2628 58.0178 18.4855 58.0178 18.9309C58.1292 19.265 58.686 19.0423 58.5746 19.4877L57.461 19.4877L57.9065 19.4877C57.7951 19.0423 58.0178 18.5968 57.461 18.2628ZM35.412 19.1536C35.078 19.3764 34.7439 19.4877 34.2985 19.5991L34.1871 19.4877L34.0757 18.0401C34.0757 18.0401 34.1871 18.0401 34.2985 17.9287C34.2985 17.9287 34.2985 17.9287 34.4098 17.9287L35.3007 19.0423C35.412 19.0423 35.412 19.1536 35.412 19.1536ZM33.9644 19.5991C33.6303 19.5991 33.1849 19.4877 32.9622 19.265C32.9622 19.265 32.9622 19.1536 32.9622 19.0423L33.7417 17.8173L33.853 17.8173L33.9644 19.265C34.0757 19.4877 34.0757 19.5991 33.9644 19.5991ZM32.0713 16.7038L31.9599 16.5924C32.0713 16.3697 32.0713 16.2583 32.294 16.0356C32.5167 16.0356 32.6281 15.9242 32.8508 15.9242L33.4076 16.7038C32.9622 16.7038 32.6281 16.8151 32.294 16.8151L32.0713 16.7038ZM33.7417 15.0334L33.853 15.1447L33.853 15.2561C33.519 15.3675 33.0735 15.3675 32.7394 15.4788L32.7394 15.3675C33.0735 15.2561 33.4076 15.1447 33.7417 15.0334ZM33.6303 16.5924L32.9622 15.8129C33.2962 15.7015 33.6303 15.7015 33.853 15.5902L33.853 16.481C33.853 16.5924 33.7417 16.5924 33.6303 16.5924ZM33.519 16.8151C33.519 16.9265 33.4076 16.9265 33.4076 16.9265C33.4076 16.9265 33.4076 16.9265 33.2962 16.9265L32.8508 16.8151C33.1849 16.9265 33.2962 16.9265 33.519 16.8151ZM34.0757 16.481L34.0757 15.5902C34.4098 15.4788 34.8553 15.4788 35.1893 15.3675L35.1893 15.4788L34.6325 16.3697C34.4098 16.3697 34.2985 16.481 34.0757 16.481ZM35.3007 15.5902L35.412 15.4788C35.5234 15.5902 35.7461 15.7015 35.8575 15.9242C35.5234 16.0356 35.1893 16.147 34.8553 16.2583C34.8553 16.2583 35.3007 15.5902 35.3007 15.5902ZM34.0757 15.2561C34.0757 15.1447 34.0757 15.0334 34.1871 15.0334C34.4098 15.0334 34.6325 15.0334 34.8553 15.1447C34.5212 15.2561 34.2985 15.2561 34.0757 15.2561ZM30.735 16.5924C30.9577 16.3697 31.2918 16.2583 31.5145 16.147C31.4031 16.2583 31.4031 16.481 31.2918 16.7038C31.1804 16.7038 30.9577 16.7038 30.735 16.5924ZM31.8486 16.9265C32.0713 16.9265 32.1827 16.9265 32.4054 16.9265L33.4076 17.1492C33.4076 17.1492 33.4076 17.2605 33.4076 17.3719L32.0713 17.9287C32.0713 17.9287 31.9599 17.9287 31.8486 17.9287C31.7372 17.706 31.7372 17.4833 31.7372 17.2605C31.7372 17.2605 31.7372 17.0378 31.8486 16.9265ZM31.9599 18.3741L32.0713 18.2628L33.4076 17.706L33.519 17.8173C33.519 17.8173 33.519 17.8173 33.519 17.9287L32.7394 19.1536L32.6281 19.265C32.4054 18.9309 32.1827 18.7082 31.9599 18.3741ZM35.6348 18.9309C35.6348 18.9309 35.5234 18.9309 35.5234 18.8196L34.6325 17.706C34.6325 17.706 34.6325 17.5946 34.7439 17.5946C34.7439 17.5946 34.7439 17.5946 34.8553 17.5946L36.1916 17.9287L36.3029 18.0401C36.0802 18.3741 35.9688 18.7082 35.6348 18.9309ZM36.3029 17.8173C36.3029 17.8173 36.1916 17.8173 36.0802 17.8173L34.7439 17.4833L34.7439 17.3719C34.7439 17.3719 34.7439 17.3719 34.7439 17.2605L36.0802 16.7038C36.0802 16.7038 36.1916 16.7038 36.3029 16.7038C36.4143 16.9265 36.4143 17.1492 36.4143 17.3719C36.3029 17.4833 36.3029 17.5946 36.3029 17.8173ZM36.0802 16.3697L34.6325 17.0378L34.5212 16.9265C34.5212 16.9265 34.5212 16.9265 34.5212 16.8151L34.6325 16.5924C35.078 16.481 35.5234 16.3697 35.9688 16.147C36.0802 16.2583 36.0802 16.2583 36.0802 16.3697ZM39.755 14.3652C39.1982 14.8107 39.421 15.3675 39.0869 15.4788C38.9755 15.4788 38.196 15.5902 38.0847 15.7015C37.8619 15.4788 37.5279 15.2561 37.1938 15.1447C37.8619 14.6993 39.0869 14.4766 39.755 14.3652ZM37.3051 15.4788C37.1938 15.5902 36.8597 15.7015 36.3029 15.8129C36.1916 15.5902 36.0802 15.4788 35.8575 15.3675C36.5256 15.2561 36.9711 15.3675 37.3051 15.4788ZM43.8753 7.68373C42.9844 8.68595 43.0958 10.0223 43.2071 11.1358C42.9844 11.2472 42.7617 11.4699 42.539 11.4699C42.4276 10.1336 42.6504 8.12916 43.8753 7.68373ZM20.8241 8.12916C20.7127 7.90645 20.49 7.57237 20.6014 7.34965C20.7127 7.23829 21.0468 7.34965 21.1582 7.34965C21.2695 7.46101 22.2717 8.0178 22.6058 8.0178C24.7216 8.5746 27.3942 7.79509 28.9533 9.24275C29.0646 9.3541 29.0646 9.3541 29.0646 9.46546C26.6147 8.0178 22.9399 10.4677 20.8241 8.12916ZM22.7172 10.9131C22.9399 11.0245 22.9399 11.2472 23.1626 11.4699C23.4967 12.0267 24.0535 12.1381 24.3876 12.5835C24.2762 12.5835 24.1648 12.5835 24.0535 12.5835C23.8308 12.5835 23.7194 12.4721 23.608 12.3608C23.4967 12.2494 23.274 12.1381 23.1626 12.2494C23.0513 12.2494 22.6058 12.2494 22.3831 12.1381C22.3831 11.804 22.8285 11.3586 22.7172 10.9131ZM20.2673 15.3675L20.9354 16.0356C20.49 16.0356 20.0446 16.0356 19.5991 16.0356L19.5991 15.9242C19.7105 15.7015 19.8219 15.5902 19.9332 15.4788C20.0446 15.3675 20.1559 15.3675 20.2673 15.3675ZM24.0535 15.4788C24.1648 15.5902 24.1648 15.7015 24.2762 15.8129C23.9421 15.8129 23.608 15.9242 23.274 15.9242L23.7194 15.4788C23.9421 15.4788 24.0535 15.4788 24.0535 15.4788ZM23.608 15.3675L22.9399 15.9242C22.7172 15.9242 22.6058 15.9242 22.3831 15.9242L22.7172 15.1447C23.0513 15.1447 23.3853 15.1447 23.7194 15.2561C23.7194 15.3675 23.7194 15.3675 23.608 15.3675ZM23.4967 19.0423C23.274 19.265 22.9399 19.3764 22.6058 19.4877C22.6058 19.4877 22.4945 19.3764 22.3831 19.265L22.1604 17.8173C22.1604 17.8173 22.2717 17.8173 22.2717 17.706L23.274 18.8196C23.4967 18.9309 23.4967 19.0423 23.4967 19.0423ZM21.2695 16.481C21.2695 16.5924 21.2695 16.5924 21.1582 16.5924L20.0446 16.147C20.3787 16.147 20.7127 16.147 21.0468 16.147C21.1582 16.2583 21.2695 16.481 21.2695 16.481ZM22.3831 16.3697L22.2717 16.2583L22.2717 16.147L22.7172 16.147L22.3831 16.3697ZM22.1604 16.0356C22.049 16.0356 21.9377 16.0356 21.8263 16.0356L21.715 15.1447L21.8263 15.1447C22.049 15.1447 22.2717 15.1447 22.3831 15.1447L22.1604 16.0356ZM21.4922 15.2561L21.6036 16.0356C21.4922 16.0356 21.2695 16.0356 21.1582 16.0356L20.49 15.2561C20.8241 15.2561 21.1582 15.2561 21.4922 15.2561ZM21.715 16.2583C21.6036 16.2583 21.6036 16.3697 21.6036 16.3697L21.4922 16.2583C21.4922 16.2583 21.6036 16.2583 21.715 16.2583ZM19.3764 16.3697C19.3764 16.3697 19.4878 16.2583 19.7105 16.2583L21.1582 16.8151L21.1582 16.9265L19.7105 17.1492C19.5991 17.1492 19.4878 17.1492 19.4878 17.0378C19.4878 16.9265 19.4878 16.9265 19.4878 16.8151C19.2651 16.8151 19.3764 16.5924 19.3764 16.3697ZM19.3764 17.706C19.3764 17.5946 19.4878 17.4833 19.5991 17.4833L21.0468 17.2605L21.0468 17.3719L20.0446 18.3741C19.9332 18.4855 19.8219 18.4855 19.7105 18.3741C19.5991 18.1514 19.4878 17.9287 19.3764 17.706ZM20.0446 18.8196C20.0446 18.8196 20.0446 18.5968 20.1559 18.4855L21.3809 17.5946L21.4922 17.706L20.9354 19.1536C20.9354 19.265 20.7127 19.3764 20.7127 19.3764C20.49 19.1536 20.2673 19.0423 20.0446 18.8196ZM21.2695 19.4877C21.2695 19.4877 21.1582 19.3764 21.1582 19.1536L21.715 17.706L21.8263 17.706L22.1604 19.1536C22.1604 19.265 22.1604 19.3764 22.049 19.3764C21.9377 19.3764 21.9377 19.3764 21.8263 19.3764C21.715 19.5991 21.4922 19.5991 21.2695 19.4877ZM23.8308 18.7082C23.8308 18.7082 23.608 18.7082 23.4967 18.5968L22.4945 17.4833C22.4945 17.4833 22.4945 17.3719 22.6058 17.3719L24.0535 17.9287C24.1648 18.0401 24.2762 18.1514 24.2762 18.1514C24.1648 18.3741 24.0535 18.5968 23.8308 18.7082ZM24.2762 18.0401C24.2762 18.0401 24.2762 17.9287 24.3876 17.9287C24.3876 17.9287 24.2762 18.0401 24.2762 18.0401ZM24.4989 17.5946C24.4989 17.5946 24.3876 17.706 24.1648 17.706L22.7172 17.1492L22.7172 17.0378L24.2762 16.8151C24.3876 16.8151 24.4989 16.8151 24.4989 16.9265L24.4989 17.0378C24.4989 17.1492 24.4989 17.3719 24.4989 17.5946ZM24.4989 16.3697C24.4989 16.481 24.3876 16.5924 24.2762 16.5924L22.7172 16.8151C22.7172 16.8151 22.7172 16.7038 22.6058 16.7038L23.0513 16.3697C23.4967 16.3697 23.9421 16.2583 24.3876 16.2583C24.3876 16.147 24.3876 16.2583 24.4989 16.3697ZM25.2784 15.5902C25.3898 15.5902 25.3898 15.7015 25.2784 15.7015C25.1671 15.7015 24.9443 15.8129 24.833 15.8129C24.7216 15.7015 24.7216 15.5902 24.6103 15.4788C24.833 15.4788 25.0557 15.4788 25.2784 15.5902ZM22.7172 15.0334L22.8285 14.8107C22.8285 14.6993 23.0513 14.5879 23.0513 14.5879C23.274 14.6993 23.4967 14.8107 23.7194 15.0334C23.3853 15.0334 23.0513 15.0334 22.7172 15.0334ZM22.6058 14.4766C22.6058 14.4766 22.7172 14.6993 22.7172 14.8107L22.6058 15.0334C22.3831 15.0334 22.1604 15.0334 21.9377 15.0334C21.8263 15.0334 21.8263 15.0334 21.715 15.0334L21.6036 14.6993C21.6036 14.5879 21.6036 14.4766 21.715 14.4766C21.8263 14.4766 21.8263 14.4766 21.9377 14.4766C22.1604 14.3652 22.3831 14.3652 22.6058 14.4766ZM21.1582 14.4766C21.2695 14.4766 21.2695 14.5879 21.3809 14.6993L21.3809 14.922C21.2695 14.8107 21.1582 14.6993 21.0468 14.5879L21.1582 14.4766ZM21.1582 15.0334C20.9354 15.0334 20.7127 15.0334 20.3787 15.1447C20.3787 15.0334 20.3787 14.922 20.3787 14.922C20.49 14.8107 20.6014 14.8107 20.7127 14.6993C20.8241 14.8107 20.9354 14.922 21.1582 15.0334ZM18.4856 15.7015C18.7083 15.5902 18.931 15.5902 19.1537 15.4788C19.0423 15.5902 19.0423 15.7015 18.931 15.9242C18.7083 15.9242 18.5969 15.9242 18.3742 15.8129C18.3742 15.8129 18.3742 15.8129 18.4856 15.7015ZM64.4766 8.35188C64.4766 8.35188 64.3653 8.46324 64.4766 8.46324C64.588 8.46324 64.588 8.46324 64.6993 8.5746C64.6993 8.5746 64.6993 8.5746 64.6993 8.46324C64.6993 8.35188 64.588 8.24052 64.4766 8.35188Z" fill="rgb(56.8,55.4,55.4)" fill-rule="nonzero" />
		<path id="Vector" d="M62.5831 19.4878L60.1332 19.4878C60.1332 19.5992 60.2446 19.8219 60.3559 19.9332L63.0285 19.9332L63.808 19.5992C63.9194 19.2651 63.6967 18.931 63.6967 18.7083C63.6967 17.9288 63.2512 17.1493 63.0285 16.3698C63.1399 16.2584 63.3626 15.813 63.5853 15.9243C64.1421 16.8152 64.2535 17.9288 64.1421 19.1537C64.0307 19.4878 63.5853 19.7105 63.5853 19.9332C63.5853 20.0446 64.2535 19.9332 64.4762 19.7105C64.4762 19.4878 64.8103 19.2651 64.9216 19.2651C65.033 18.931 64.8103 18.931 64.9216 18.7083C65.033 18.5969 64.9216 17.0379 64.8103 16.8152C64.8103 16.8152 64.8102 16.8152 64.6989 16.8152C64.5875 16.4811 64.9216 16.0357 65.033 15.7016L65.9238 15.5903C65.8125 14.8108 65.5898 14.0312 65.3671 13.2517C65.4784 13.029 65.7011 12.9177 65.8125 12.8063C66.7033 12.2495 65.9238 11.2473 65.9238 10.4678C65.8125 10.1337 65.2557 9.79962 65.1443 9.35419C65.2557 9.46555 65.3671 9.35419 65.3671 9.46555C65.5898 9.24283 65.5898 9.02011 65.4784 8.68604C65.9238 8.2406 66.1466 8.01789 66.1466 7.90653C66.1466 7.4611 65.4784 6.9043 65.1443 6.9043C64.9216 7.01566 64.8103 7.23838 64.3648 7.57245C64.3648 7.57245 63.9194 7.4611 63.6967 7.57245C63.5853 7.68381 63.5853 8.01789 63.808 8.2406C63.808 8.35196 63.6967 8.35196 63.6967 8.46332C63.6967 8.57468 63.6967 8.57468 63.6967 8.57468C63.808 8.68604 63.808 8.7974 63.6967 8.90876C63.5853 9.13147 63.808 9.24283 63.9194 9.24283C63.9194 9.24283 63.9194 9.24283 64.0307 9.35419C64.0307 9.5769 63.3626 9.91098 63.3626 10.1337C63.2512 10.5791 63.0285 10.5791 62.6944 12.2495C62.6944 12.6949 62.6944 13.029 62.6944 13.2517C62.3604 14.254 62.0263 14.8108 61.8036 15.4789C61.5809 16.0357 62.8058 17.7061 62.8058 18.8197C62.8058 19.3764 62.5831 19.3764 62.5831 19.4878ZM64.4762 17.7061C64.3648 17.5947 64.3648 17.372 64.3648 17.1493C64.4762 17.0379 64.6989 17.1493 64.6989 17.1493C64.9216 17.7061 64.9216 17.8174 64.4762 17.7061ZM64.4762 9.79962L64.5875 9.68826C64.9216 9.46555 64.6989 9.57691 64.3648 9.46555C64.2535 9.35419 64.2535 9.24283 64.2535 9.13147C64.2535 8.90876 64.1421 8.90876 64.1421 8.7974C64.1421 8.7974 64.1421 8.68604 64.2535 8.57468C64.3648 8.46332 64.3648 8.12925 64.4762 8.12925C65.1443 8.12925 64.9216 8.46332 65.033 8.46332C65.033 8.57468 65.3671 8.90876 65.4784 9.02011C65.4784 9.35419 65.1443 9.13147 65.2557 9.57691C65.2557 10.2451 64.4762 10.1337 64.1421 10.6905C63.9194 10.0223 64.4762 10.0223 64.4762 9.79962ZM63.808 12.5836C64.0307 12.6949 64.1421 12.9177 64.2535 12.9177C64.3648 13.1404 64.0307 13.1404 63.9194 13.2517C63.6967 13.2517 63.5853 13.029 63.4739 13.1404L63.2512 13.1404C63.3626 13.029 63.5853 12.6949 63.808 12.5836ZM62.249 15.9243C62.1376 15.4789 62.8058 14.8107 63.1399 13.3631C63.2512 13.2517 63.3626 13.6972 63.5853 13.5858C63.9194 13.5858 63.808 14.588 64.1421 13.9199C64.1421 13.6972 64.1421 13.3631 64.3648 13.2517C64.5875 13.2517 64.6989 13.3631 64.8103 13.4745L64.4762 14.0312C65.1443 14.0312 64.2535 15.1448 65.1443 14.9221C65.1443 15.3675 64.9216 16.4811 64.6989 16.3698C64.5875 15.7016 64.4762 16.0357 64.4762 16.1471C64.4762 16.3698 64.4762 16.5925 64.5875 16.8152C64.5875 16.8152 64.3648 16.8152 64.3648 16.9266C63.9194 16.2584 63.9194 15.2562 63.5853 14.4767L63.4739 14.588C63.4739 15.0335 63.2512 15.7016 62.9172 15.9243C62.6944 16.0357 63.474 15.9243 62.8058 16.2584C63.0285 16.3698 62.8058 16.5925 62.5831 16.5925C62.4717 16.3698 62.3604 16.1471 62.249 15.9243ZM62.9172 17.4834C62.8058 17.372 62.6944 17.0379 62.5831 16.9266L62.9172 16.8152C63.0285 16.9266 63.1399 17.1493 63.1399 17.372C63.1399 17.372 63.0285 17.4834 62.9172 17.4834ZM51.2245 10.0223C51.2245 9.24283 51.4472 8.68604 51.1132 7.90653C51.1132 7.57245 51.3359 7.34974 51.3359 7.01566L50.7791 7.12702C50.6677 7.79517 50.5564 7.90653 50.6677 8.57468C50.7791 9.24283 50.8904 9.79962 51.2245 10.0223ZM45.4339 12.1381C47.5497 11.5814 49.1087 11.0246 50.7791 10.2451C49.9996 8.68604 50.2223 8.2406 50.2223 7.23838C50.2223 7.23838 49.3314 7.23838 48.2178 7.01566C47.1043 7.68381 45.6566 10.5791 45.4339 12.1381ZM55.3448 7.79517C54.4539 7.12702 53.7858 5.67936 52.7835 5.79072C52.6722 4.67714 52.2267 2.8954 53.6744 1.00231C53.8971 0.890951 54.2312 0.890951 54.3426 0.779593C53.7858 0.668234 52.8949 1.11367 52.3381 0.779593C52.3381 0.779593 52.5608 1.22503 52.8949 1.33638C52.7835 1.5591 52.3381 1.78182 52.5608 2.22725C52.1154 2.56133 52.2267 3.00676 52.4495 3.22948C52.2267 3.45219 52.004 3.89763 52.3381 4.2317C51.8927 4.67714 52.4495 5.01121 52.5608 5.12257C52.3381 5.568 52.5608 5.90208 52.5608 5.90208C52.5608 6.23615 52.004 6.68159 51.7813 6.79295C51.5586 7.57245 51.67 9.02011 51.67 9.91098C53.0063 9.24283 54.3426 8.68604 55.3448 7.79517ZM39.9773 33.4076C39.9773 32.6281 39.4205 31.7372 38.7524 31.2918C38.5296 31.1804 38.4183 31.1804 38.1956 31.0691C38.4183 31.0691 38.641 31.0691 38.8637 30.9577C39.5319 30.6236 40.4227 29.7328 40.4227 28.1738C40.4227 27.0602 39.9773 26.0579 39.0864 25.5012C38.3069 24.9444 37.4161 24.833 36.4138 24.833L29.1755 24.833L29.1755 26.7261L30.8459 26.7261L30.8459 36.0802L29.1755 36.0802L29.1755 37.9733L34.4094 37.9733L34.4094 36.0802L32.739 36.0802L32.739 31.9599L36.3025 31.9599C37.5274 31.9599 37.9729 32.7394 38.0842 33.519L38.1956 37.9733L41.759 37.9733L41.759 36.0802L40.0887 36.0802L39.9773 33.4076ZM36.6366 30.1782L32.6276 30.1782L32.6276 26.7261L36.4138 26.7261C36.7479 26.7261 37.3047 26.7261 37.6388 26.9488C38.0842 27.1715 38.5296 27.7283 38.5296 28.5078C38.641 29.5101 37.7501 30.1782 36.6366 30.1782ZM28.5074 42.539L26.0575 42.539L26.0575 50L27.1711 50L27.1711 46.7706L28.396 46.7706C30.1778 46.7706 30.9573 45.8797 30.9573 44.6548C30.9573 43.5412 30.1778 42.539 28.5074 42.539ZM28.5074 45.8797L27.1711 45.8797L27.1711 43.5412L28.5074 43.5412C29.5096 43.5412 29.8437 44.098 29.8437 44.6548C29.8437 45.4343 29.2869 45.8797 28.5074 45.8797ZM35.1889 42.539L31.8481 50L33.0731 50L33.964 47.7728L37.1933 47.7728L38.0842 50L39.3092 50L35.857 42.539L35.1889 42.539ZM34.4094 46.882L35.523 43.9866L36.7479 46.882L34.4094 46.882ZM50.7791 42.539L51.8927 42.539L51.8927 50L50.7791 50L50.7791 42.539ZM56.4584 44.3207C56.4584 43.7639 57.0152 43.4299 57.7947 43.4299C58.3515 43.4299 59.0196 43.6526 59.6878 44.2094L59.6878 42.9844C59.131 42.6503 58.4628 42.4276 57.906 42.4276C56.4584 42.4276 55.4561 43.2071 55.4561 44.4321C55.4561 46.4365 59.0196 46.6593 59.0196 48.2183C59.0196 48.6637 58.5742 49.1091 57.6833 49.1091C56.9038 49.1091 56.1243 48.7751 55.5675 47.9956L55.5675 49.3319C56.2356 49.7773 56.9038 50 57.7947 50C59.131 50 60.0218 49.1091 60.0218 47.9956C59.9105 45.7684 56.4584 45.7684 56.4584 44.3207ZM46.8815 48.5523C46.3247 47.6615 45.8793 46.882 45.0998 46.4365C45.9907 46.1025 46.4361 45.4343 46.4361 44.6548C46.4361 43.3185 45.4339 42.539 43.8749 42.539L41.8704 42.539L41.8704 50L42.984 50L42.984 46.7706L43.4294 46.7706C43.9862 46.7706 44.4316 46.9933 45.5452 48.441L46.5475 50L47.8838 50L47.327 49.1091C47.1043 48.9978 46.9929 48.7751 46.8815 48.5523ZM43.6521 45.7684L42.984 45.7684L42.984 43.4299L43.6521 43.4299C44.7657 43.4299 45.2112 43.8753 45.2112 44.5434C45.2112 45.2116 44.8771 45.7684 43.6521 45.7684Z" fill="rgb(56.8,55.4,55.4)" fill-rule="nonzero" />
	</g>
</svg>
