<svg viewBox="0 0 41 50" xmlns="http://www.w3.org/2000/svg" xmlns:xlink="http://www.w3.org/1999/xlink" width="41.000000" height="50.000000" fill="none" customFrame="#000000">
	<path id="Vector" d="M40.013 45.3158L40.5535 45.3158L40.5535 49.9222L37.2494 46.4359L37.2494 49.7509L36.6937 49.7509L36.6937 45.0975L40.013 48.5996L40.013 45.3158ZM24.4831 45.3158L24.4831 48.1324C24.4831 48.6303 24.3439 49.0349 24.0658 49.3466C23.7728 49.6889 23.3715 49.8445 22.8619 49.8445C22.3834 49.8445 21.9823 49.6889 21.6885 49.3466C21.3956 49.0349 21.2561 48.6303 21.2561 48.1324L21.2561 45.3158L21.8123 45.3158L21.8123 47.9456C21.8123 48.8639 22.1519 49.3311 22.8619 49.3311C23.5873 49.3311 23.9425 48.8639 23.9425 47.9456L23.9425 45.3158L24.4831 45.3158ZM26.1811 45.3158L28.8209 45.3158L28.8209 45.8295L27.7713 45.8295L27.7713 49.7512L27.2464 49.7512L27.2464 45.8295L26.1811 45.8295L26.1811 45.3158ZM25.2241 45.3158L25.7798 45.3158L25.7798 49.7512L25.2241 49.7512L25.2241 45.3158ZM20.3611 45.3158L20.9632 45.3158L19.0488 50L17.1346 45.3158L17.7367 45.3158L19.049 48.5996L20.3611 45.3158ZM35.6749 47.541C35.6749 48.0389 35.505 48.4593 35.1502 48.8171C34.826 49.1595 34.4092 49.3308 33.9302 49.3308C33.4516 49.3308 33.0349 49.1595 32.6802 48.8171C32.3249 48.459 32.1552 48.0389 32.1552 47.541C32.1552 47.0431 32.3095 46.6227 32.6491 46.2804C32.9888 45.9228 33.4212 45.7515 33.9302 45.7515C34.4397 45.7515 34.8565 45.9228 35.1807 46.2804C35.5052 46.6227 35.6749 47.0428 35.6749 47.541ZM35.5516 45.907C35.0887 45.4556 34.5482 45.2223 33.9304 45.2223C33.2976 45.2223 32.7576 45.4556 32.2942 45.907C31.8466 46.3581 31.6149 46.9031 31.6149 47.5407C31.6149 48.1942 31.8469 48.7391 32.2942 49.1902C32.7419 49.6261 33.2822 49.8442 33.9304 49.8442C34.5638 49.8442 35.1192 49.6261 35.5516 49.1902C35.9994 48.7391 36.2309 48.1942 36.2309 47.5407C36.2311 46.9031 35.9997 46.3581 35.5516 45.907ZM31.4917 45.3158L31.4917 45.8295L30.4572 45.8295L30.4572 49.7512L29.9015 49.7512L29.9015 45.8295L28.8519 45.8295L28.8519 45.3158L31.4917 45.3158ZM5.95766 46.2804C6.28189 46.6227 6.43619 47.0431 6.43619 47.541C6.43619 48.0389 6.26625 48.4593 5.92691 48.8171C5.58729 49.1595 5.17027 49.3308 4.69174 49.3308C4.2132 49.3308 3.79644 49.1595 3.44145 48.8171C3.11722 48.459 2.93217 48.0389 2.93217 47.541C2.93217 47.0431 3.10184 46.6227 3.42608 46.2804C3.76569 45.9228 4.18272 45.7515 4.692 45.7515C5.20129 45.7515 5.63369 45.9228 5.95766 46.2804ZM6.31291 45.907C5.84976 45.4556 5.30945 45.2223 4.692 45.2223C4.05891 45.2223 3.50349 45.4556 3.07109 45.907C2.60793 46.3581 2.37649 46.9031 2.37649 47.5407C2.37649 48.1942 2.6082 48.7391 3.07109 49.1902C3.50349 49.6261 4.0438 49.8442 4.692 49.8442C5.34047 49.8442 5.88078 49.6261 6.31291 49.1902C6.77607 48.7391 6.99214 48.1942 6.99214 47.5407C6.99214 46.9031 6.77607 46.3581 6.31291 45.907ZM7.9956 47.9454C7.9956 48.8636 8.35058 49.3308 9.06083 49.3308C9.75569 49.3308 10.1261 48.8636 10.1261 47.9454L10.1261 45.3156L10.6664 45.3156L10.6664 48.1322C10.6664 48.6301 10.5274 49.0347 10.234 49.3463C9.94074 49.6886 9.53936 49.8442 9.06083 49.8442C8.56692 49.8442 8.18091 49.6886 7.88769 49.3463C7.57884 49.0347 7.44018 48.6301 7.44018 48.1322L7.44018 45.3156L7.99586 45.3156L7.9956 47.9454ZM0.986757 45.3158L0.986757 49.253L2.32983 49.253L2.32983 49.7509L0.446453 49.7509L0.446453 45.3156L0.986757 45.3156L0.986757 45.3158ZM14.2168 47.1364C14.9578 47.4317 15.313 47.8676 15.313 48.459C15.313 48.8636 15.1741 49.1902 14.8963 49.4551C14.6338 49.7196 14.3096 49.8445 13.9236 49.8445C13.5686 49.8445 13.2597 49.7354 12.9975 49.4863C12.7504 49.253 12.5961 48.9572 12.5497 48.5996L13.1054 48.4748C13.1054 48.7239 13.1826 48.9262 13.3525 49.0975C13.5224 49.253 13.7075 49.3308 13.9546 49.3308C14.1863 49.3308 14.3713 49.2373 14.5413 49.0662C14.6802 48.9107 14.7573 48.7081 14.7573 48.4593C14.7573 48.1169 14.5103 47.8371 14.001 47.6188L13.6921 47.5103C13.0747 47.2144 12.7504 46.8411 12.7504 46.3739C12.7504 46.0315 12.8893 45.736 13.1364 45.5334C13.3989 45.3158 13.6921 45.2223 14.0474 45.2223C14.5567 45.2223 14.9273 45.4556 15.1741 45.907L14.742 46.1561C14.572 45.8915 14.3406 45.7515 14.0317 45.7515C13.8464 45.7515 13.6611 45.798 13.5222 45.907C13.3679 46.0313 13.2905 46.1874 13.2905 46.3736C13.2905 46.6382 13.4912 46.8408 13.9233 46.9963L14.2168 47.1364ZM11.4074 45.3158L11.9633 45.3158L11.9633 49.7512L11.4074 49.7512L11.4074 45.3158ZM33.0855 5.22294L22.438 30.5562L19.5005 24.0585L24.9264 9.17109C25.3344 8.01976 26.762 7.48498 29.1693 7.48498L30.0256 5.22294L17.3791 5.22294L16.563 7.48498C18.3581 7.48498 19.0925 8.01949 18.8067 9.17109L16.1145 16.7381L10.8111 5.22294C9.83205 3.9893 10.3214 3.37221 12.239 3.37221L12.239 0.699404L0 0.699404L0 3.37248C2.28476 3.37248 3.7124 3.98957 4.32455 5.22321L13.2997 24.47L9.09768 35.7794C9.01576 37.3009 6.64987 38.0417 2.08062 38.0417L1.22404 40.3035L36.1452 40.3035L41 29.8988L38.4705 29.8988C36.1047 35.2861 33.3713 38.0417 30.3116 38.0417L14.2786 38.0417L16.6447 31.6672L18.6845 35.7794L23.2537 35.7794L36.145 5.22348C36.7571 3.37274 38.3483 2.38604 40.8367 2.38604L40.8367 0L30.3114 0L30.3114 2.38551C33.4935 2.38551 34.3912 3.37248 33.0855 5.22294Z" fill="rgb(56.8,55.4,55.4)" fill-rule="evenodd" />
</svg>
