<svg viewBox="0 0 72.9545 50" xmlns="http://www.w3.org/2000/svg" xmlns:xlink="http://www.w3.org/1999/xlink" width="72.954529" height="50.000000" fill="none" customFrame="#000000">
	<g id="Logo">
		<path id="Union" d="M34.2572 35.0134C33.9902 35.0134 33.9235 34.9132 34.0236 34.5127C34.0236 34.4793 34.4241 32.8104 34.9916 30.4406C39.0636 29.6729 40.065 26.0347 40.065 24.466C40.065 22.7971 39.2639 21.729 37.595 19.7597C38.5296 15.9212 39.2639 12.8171 39.2639 12.8171L36.6604 12.8171C36.8607 13.0507 36.8941 13.4846 36.8273 13.9186C36.794 14.0854 36.4602 15.6208 35.9929 17.7904C35.7592 17.49 35.4922 17.1896 35.2586 16.8892C35.6591 15.0534 36.0263 13.3178 36.093 13.0841C36.3934 11.9493 36.6938 11.3818 37.0276 10.8478C37.0944 10.7477 37.9622 9.51268 39.0636 7.94393C40.0316 8.44459 40.9328 9.24566 41.6004 10.4139L42.0677 8.47797C41.4001 7.91055 40.599 7.44326 39.6311 7.10948C41.567 4.3725 43.9034 1.10147 44.1705 0.734312C44.6377 0.133511 45.0717 0 45.0717 0L43.2025 0L38.83 6.84246C38.1958 6.70895 37.4949 6.60881 36.7272 6.60881C36.0596 6.60881 35.4255 6.70895 34.8247 6.87583L32.7219 0L30.9195 0C31.32 0.300401 31.4869 0.934579 31.587 1.33511C31.6538 1.56876 32.5216 4.90654 33.1892 7.61015C31.4201 8.71162 30.3187 10.6475 30.3187 12.6836C30.3187 13.6182 30.5857 14.9199 31.854 16.255C31.9875 16.3885 32.5216 16.9559 33.1892 17.7236C32.822 19.8264 32.4548 21.8291 32.3881 22.1629C32.2212 22.9306 31.854 23.0975 31.854 23.0975L34.2906 23.0975C34.0236 22.8304 34.057 22.1963 34.1571 21.7624C34.1905 21.6622 34.3908 20.6275 34.6912 19.3258C34.9582 19.6262 35.1918 19.8932 35.4255 20.1602C34.7579 23.231 33.9902 26.8358 33.356 29.7063C31.7539 29.6729 29.3507 28.2376 28.4161 25.9346L27.8821 28.2043C28.4161 28.8385 30.7192 30.5073 33.1892 30.5741C32.6551 32.9439 32.2879 34.6462 32.2546 34.7797C32.0877 35.3805 31.8874 35.6142 31.7539 35.7143L43.336 35.7143L44.4375 33.8451C44.4375 33.8451 42.2679 34.3458 39.3307 34.713C37.2279 35.0134 35.8928 35.0134 34.2572 35.0134ZM36.5603 7.27637C37.0944 7.27637 37.7285 7.3765 38.3293 7.61015L36.0596 11.1482L34.9916 7.57677C35.4922 7.3765 36.0263 7.27637 36.5603 7.27637ZM32.0877 11.7156C32.0877 10.4139 32.6217 9.31242 33.4228 8.54473C33.7566 9.81308 33.9902 10.781 34.057 10.9813C34.2239 11.6822 34.1905 12.0828 34.1237 12.4833C34.0904 12.5834 33.9235 13.6515 33.6898 15.02C32.9221 14.2857 32.0877 13.0174 32.0877 11.7156ZM37.061 22.0294C37.6618 22.7303 38.4628 23.9653 38.4628 25.5007C38.4628 27.3365 37.3948 28.972 35.4588 29.5728C35.3587 29.6061 35.292 29.6061 35.1918 29.6395C35.7259 27.3698 36.3934 24.6328 37.061 22.0294ZM3.71325 45.8377C1.98486 45.388 1.68503 45.3175 1.68503 44.7972C1.68503 44.2769 2.24059 44.0212 2.71678 44.0212C3.43107 44.0212 4.01308 44.2328 4.06599 45.0529L5.52101 45.0529C5.52101 43.4656 4.2159 42.8571 2.78733 42.8571C1.54394 42.8571 0.230007 43.5273 0.230007 44.9206C0.230007 46.1993 1.25294 46.5873 2.26704 46.8607C3.28115 47.134 4.28644 47.2575 4.28644 47.9894C4.28644 48.7213 3.49279 48.836 2.96369 48.836C2.17004 48.836 1.45576 48.4832 1.45576 47.575L0.000730207 47.575C-0.0257248 49.2504 1.39403 50 2.90197 50C4.75382 50 5.73265 49.0653 5.73265 47.8131C5.73265 46.2698 4.20708 45.9524 3.71325 45.8377ZM53.467 46.605L53.467 46.6314C54.2078 46.8254 54.4194 47.5397 54.4723 48.2187C54.4988 48.642 54.4812 49.4357 54.7545 49.8325L53.2554 49.8325C53.1143 49.3034 53.0349 48.7567 53.0173 48.2011C52.9115 47.4868 52.6293 47.1694 51.8797 47.1694L50.3806 47.1694L50.3806 49.8237L48.8815 49.8237L48.8815 43.0071L52.6822 43.0071C53.714 43.0159 54.5517 43.8625 54.5429 44.8942C54.6046 45.6438 54.1725 46.3404 53.467 46.605ZM8.29887 43.0159L5.70628 49.8325L7.23185 49.8325L7.76096 48.3157L10.3183 48.3157L10.8297 49.8325L12.3818 49.8325L9.84208 43.0159L8.29887 43.0159ZM14.3831 43.0159L12.884 43.0159L12.884 49.8413L14.3831 49.8413L14.3831 43.0159ZM16.9943 43.0159L19.8603 47.5926L19.8603 43.0159L26.8003 43.0159L26.8003 44.2857L24.7544 44.2857L24.7544 49.8413L23.2553 49.8413L23.2553 44.2857L21.2712 44.2857L21.2712 49.8413L19.7721 49.8413L16.9326 45.2734L16.9061 45.2734L16.9061 49.8325L15.504 49.8325L15.504 43.0159L16.9943 43.0159ZM29.833 43.0159L31.3497 43.0159L31.3497 48.5715L34.6566 48.5715L34.6566 49.8325L29.833 49.8325L29.833 43.0159ZM37.646 43.0159L35.0534 49.8325L36.5701 49.8325L37.0992 48.3157L39.6477 48.3157L40.1592 49.8325L41.7112 49.8325L39.1804 43.0159L37.646 43.0159ZM46.2796 47.2575C46.2796 48.2716 45.9357 48.739 44.8687 48.739C43.6517 48.739 43.4666 48.0071 43.4666 47.2575L43.4666 43.0159L41.9674 43.0159L41.9674 47.2575C41.9674 49.1094 43.0345 49.9912 44.8687 49.9912C46.7029 49.9912 47.7787 49.0917 47.7787 47.2575L47.7787 43.0159L46.2796 43.0159L46.2796 47.2575ZM57.1445 46.9048L60.4513 46.9048L60.4513 45.7408L57.1445 45.7408L57.1445 44.2769L60.7159 44.2769L60.7159 43.0159L55.6365 43.0159L55.6365 49.8325L60.7953 49.8325L60.7953 48.5715L57.1445 48.5715L57.1445 46.9048ZM66.0233 47.5926L66.0233 43.0159L72.9545 43.0159L72.9545 44.2857L70.9087 44.2857L70.9087 49.8413L69.4096 49.8413L69.4096 44.2857L67.4254 44.2857L67.4254 49.8413L65.9263 49.8413L63.0956 45.2734L63.0956 49.8325L61.6759 49.8325L61.6759 43.0159L63.1573 43.0159L66.0233 47.5926ZM50.3983 46.1023L52.0208 46.1023C52.6822 46.1023 53.0702 45.7849 53.0702 45.1235C53.0702 44.4621 52.7087 44.1799 52.0385 44.1799L50.3983 44.1799L50.3983 46.1023ZM8.15778 47.1958L9.03961 44.6914L9.06607 44.6914L9.92145 47.1958L8.15778 47.1958ZM37.5049 47.1958L38.3955 44.6914L38.422 44.6914L39.295 47.1958L37.5049 47.1958Z" fill="rgb(56.8,55.4,55.4)" fill-rule="evenodd" />
	</g>
</svg>
